<svg width="140" height="140" viewBox="0 0 140 140" fill="none" xmlns="http://www.w3.org/2000/svg">
<path d="M17.9381 34.7051C17.9381 34.7051 10.8834 35.2629 9.94277 36.8488C8.99121 38.4348 8.93652 40.8738 8.93652 43.5535C8.93652 46.2441 8.82715 52.4129 8.82715 52.4129L10.5115 56.0332C10.5115 56.0332 10.8287 102.179 10.8287 103.611C10.8287 105.033 10.8287 106.772 12.885 107.877C14.9412 108.982 67.2006 134.225 68.8303 134.904C71.2912 135.921 72.4615 135.538 72.4615 135.538L130.529 38.4238C130.529 38.4238 130.343 35.766 127.926 35.1316C126.537 34.7816 17.9381 34.7051 17.9381 34.7051Z" fill="#F5B03E"/>
<path d="M71.8374 66.6307C70.9515 69.0698 71.3562 94.2917 71.5093 112.634C71.6624 130.965 71.039 134.76 71.5093 135.395C71.9796 136.029 73.2593 135.417 76.8796 133.809C83.6062 130.834 115.916 114.843 118.289 113.421C120.662 111.999 126.459 109.057 127.411 107.471C128.362 105.885 128.876 91.1307 129.194 79.2854C129.511 67.4292 129.828 57.9463 129.828 57.9463L131.25 53.6807C131.25 53.6807 130.944 42.1526 130.889 40.8838C130.791 38.7838 130.561 37.701 130.025 37.9635C129.259 38.3245 122.872 43.5635 105.962 51.7885C95.3421 56.9401 72.4499 64.9463 71.8374 66.6307Z" fill="#E07F14"/>
<path d="M71.9907 12.2605C67.2548 12.0418 54.2938 19.534 41.8032 23.6355C29.3126 27.7371 10.4563 35.984 10.2923 36.4652C10.1392 36.9355 17.8829 40.4027 22.8267 42.7762C28.7001 45.5871 51.122 56.2074 55.2235 57.9465C59.336 59.6855 69.136 63.7543 70.711 63.634C72.9204 63.4809 93.7892 55.2559 104.377 50.2027C114.964 45.1496 128.199 37.3184 128.374 35.4152C128.45 34.5621 108.905 27.2668 99.1595 22.859C80.347 14.3387 75.4579 12.4246 71.9907 12.2605Z" fill="#FDD717"/>
<path d="M8.88145 54.4369C9.04551 56.4932 10.1721 57.226 13.0377 58.4728C15.9033 59.7197 70.0768 87.8619 71.3236 87.8619C72.5705 87.8619 72.9424 83.3994 71.5752 83.5197C70.8314 83.5853 53.0361 75.1307 36.4111 66.6869C22.3018 59.5338 8.79395 52.3916 8.79395 52.3916L8.88145 54.4369Z" fill="#E37D14"/>
<path d="M131.261 53.583C131.261 53.583 73.4123 83.0049 72.8436 83.2893C72.2748 83.5736 71.367 83.4752 71.367 83.4752L71.3232 87.8611C71.3232 87.8611 71.8592 87.9814 72.4607 87.7955C72.8107 87.6861 129.587 58.2971 129.839 58.2096C130.09 58.1221 131.184 57.4658 131.414 56.0768C131.611 54.9611 131.261 53.583 131.261 53.583Z" fill="#BA5E0D"/>
<path d="M31.5648 106.554L42.8852 123.398L47.8398 125.093C47.8398 125.093 48.2445 106.718 48.4086 93.1012C48.6383 73.2059 48.5508 55.0606 48.8352 54.0324C49.3055 52.2934 71.3227 45.1512 71.3227 45.1512C71.3227 45.1512 96.1945 52.9496 96.982 54.6887C97.332 55.4543 97.0586 68.3387 96.982 83.3559C96.8836 102.321 96.9164 124.218 96.9164 124.218C96.9164 124.218 99.4867 124.207 99.793 123.256C100.11 122.304 101.379 114.965 101.379 114.965L111.026 50.6637L115.926 44.3418L109.123 31.3918L81.2102 17.6543L71.618 19.809L61.2383 18.223L28.3164 41.8809L32.1555 49.6684L41.5727 54.4699L31.5648 106.554Z" fill="#AF0F1B"/>
<path d="M99.8372 54.0209C99.2356 55.3443 99.5856 123.54 99.5856 123.54C99.5856 123.54 102.593 121.877 106.465 120.018C110.315 118.169 113.082 117.021 113.323 116.058C113.564 115.096 113.99 47.6553 113.99 47.6553L99.8372 54.0209Z" fill="#DC0D28"/>
<path d="M45.2258 52.6094C45.5867 53.0031 44.9961 123.769 44.2633 123.933C43.6836 124.075 30.5039 118.191 30.5039 117.589C30.5039 116.988 31.5648 49.3609 31.5648 49.3609C31.5648 49.3609 44.1539 51.4062 45.2258 52.6094ZM71.3445 15.5859C67.7023 15.5859 63.6773 16.625 62.507 19.6766C61.3367 22.7281 61.0742 27.2672 61.0742 30.6578C61.0742 33.9062 60.5492 42.2188 70.557 42.0875C80.5648 41.9562 80.8602 38.2484 81.0133 30.0672C81.1445 23.2422 80.2367 19.9281 79.3289 18.5063C78.5195 17.2266 75.8289 15.5859 71.3445 15.5859Z" fill="#FF2A23"/>
<path d="M65.5598 32.4742C67.8348 32.6055 68.8082 27.607 70.5582 24.8727C72.3082 22.1492 74.1348 20.3227 73.4785 18.9008C72.9426 17.7195 68.1848 17.3367 65.6145 20.9133C63.8098 23.4399 63.4926 32.3539 65.5598 32.4742Z" fill="#FCC9D2"/>
<path d="M80.2051 17.9596C80.2051 17.9596 83.4316 21.2409 84.2738 27.6721C85.116 34.1034 84.1426 39.1018 84.1426 39.1018C84.1426 39.1018 100.177 38.6205 105.711 39.6815C111.169 40.7424 113.072 43.1487 113.072 44.8987C113.072 46.6487 109.485 48.0596 105.843 47.7971C102.2 47.5346 99.7394 47.3377 99.2801 48.2565C98.8207 49.1752 99.477 50.5971 104.541 50.9799C109.605 51.3737 115.457 50.6518 117.272 44.3518C119.088 38.0518 119.154 27.1362 118.508 19.2721C117.863 11.4081 116.441 6.91274 112.919 5.20649C109.211 3.42368 99.9254 3.12837 91.1535 8.06118C82.3816 12.994 80.2051 17.9596 80.2051 17.9596Z" fill="#FF2A23"/>
<path d="M98.3715 10.4779C97.234 9.01226 93.5699 9.05601 91.6121 11.3201C89.534 13.7263 89.0746 22.881 91.7433 23.406C94.7621 23.9966 94.2152 19.0529 96.4246 16.0013C98.5902 13.0154 99.4761 11.9107 98.3715 10.4779Z" fill="#FCC9D2"/>
<path d="M61.666 18.2767C61.666 18.2767 49.3832 3.95951 35.3504 4.17826C26.9066 4.30951 24.7629 9.1767 24.3035 11.1892C23.8441 13.2017 20.3441 33.2173 25.0145 44.0564C29.6848 54.8954 39.3754 52.0845 40.8957 51.7345C42.8426 51.2751 46.9879 49.8533 46.5941 48.3548C46.2004 46.8564 32.4301 52.2486 32.2988 46.0798C32.1676 39.9111 42.0441 39.2548 46.5941 39.1236C51.1441 38.9923 58.9426 40.0314 58.9426 40.0314C58.9426 40.0314 57.5754 32.5611 58.4832 27.2345C59.391 21.9079 61.666 18.2767 61.666 18.2767Z" fill="#FF2A23"/>
<path d="M31.5872 9.37363C29.8372 11.1893 29.1153 21.6564 30.22 26.8518C31.3247 32.0471 32.2982 34.2564 34.5732 33.808C36.4763 33.4252 37.6247 23.2314 38.5325 19.6439C39.506 15.8158 41.9122 11.7471 40.9388 9.96425C39.4513 7.22988 33.4138 7.48144 31.5872 9.37363Z" fill="#FCC9D2"/>
</svg>
