<svg xmlns="http://www.w3.org/2000/svg" id="Layer_2" viewBox="0 0 916.77 325.85"><defs><style>.cls-1{fill:none;stroke-width:1.6px;}.cls-1,.cls-2,.cls-3,.cls-4,.cls-5{stroke:#000;stroke-miterlimit:10;}.cls-6,.cls-2,.cls-3,.cls-4,.cls-5{fill:#000;}.cls-2{stroke-width:.7px;}.cls-3{stroke-width:3.1px;}.cls-4{stroke-width:2px;}</style></defs><g id="Layer_1-2"><g id="Layer_2-2"><g id="Layer_1-2"><g><g><g><path class="cls-5" d="M200.7,266.55c.7-.5,1.4-.5,2.1,0,.7,.5,.8,1.2,.3,2-2.3,3.3-4.8,6.4-7.5,9.2-2.7,2.8-5.6,5.5-8.7,8.2-3.7,3.3-7.5,6.6-11.3,9.7s-7.7,6.2-11.7,9.3c-3.2,2.4-6.5,4.8-9.8,7.1-3.3,2.3-6.7,4.5-10.2,6.5-2.3,1.3-4.7,2.6-7.4,3.8s-5.3,1.8-8,1.8-4-.6-5.2-1.8c-1.2-1.2-2.1-2.7-2.6-4.4-.5-1.7-.8-3.6-.9-5.6,0-2,0-3.8,.3-5.4,.8-6.8,2.7-13.4,5.6-19.9,2.9-6.5,5.7-12.8,8.4-18.9,2.9-6.7,6-13.2,9.1-19.7s6.3-13,9.5-19.5h-1.8c-4.1,.3-8.2,.6-12.3,1.1s-8.1,1-12.1,1.7c-3.6,.7-7.2,1.4-10.8,2.2-3.6,.8-7.3,1.3-11,1.6-.7,.3-1.2,0-1.7-.9s-.2-1.5,.9-1.9c4.7-1.9,9.6-3.2,14.8-3.9,5.2-.7,10.3-1.4,15.2-2.1,6.7-.9,13.6-1.7,20.8-2.4,4.5-8.8,9.1-17.6,13.6-26.4,4.5-8.8,8.9-17.7,13.2-26.6,.5-1.1,1.4-1.3,2.6-.8,1.2,.5,1.6,1.3,1.2,2.4-.7,2.1-1.5,4.2-2.5,6.2s-2,4-3.1,6c-2.9,6.1-5.9,12.2-8.9,18.2-3,6-6,12.1-9.1,18.2l-1.2,2.4h2.4c2.5-.1,5-.2,7.5-.3,2.5,0,5-.1,7.5-.1h7.4c2.5,0,5,0,7.4,.5,1.1,.3,2.1,.7,3.2,1.3,1.1,.6,1.7,1.6,2,2.9,.3,1.1,.1,2-.5,2.8s-1.4,1.3-2.5,1.6c-.7,.1-1.1-.1-1.4-.8-.3-.7,0-1.1,.6-1.4,.5-.1,.7-.3,.5-.6-.2-.3-.5-.5-.9-.7s-.9-.4-1.4-.5-.9-.2-1-.2c-.9-.1-1.8-.2-2.7-.2h-14.7c-5.2,0-10.4,.2-15.6,.6-3.2,6.5-6.4,13.1-9.5,19.6s-6.2,13.2-9.3,20c-1.5,3.2-2.9,6.4-4.2,9.6s-2.7,6.4-4,9.6c-1.2,3.1-2.4,6.2-3.5,9.3-1.1,3.1-2,6.4-2.5,9.7-.3,1.6-.4,3.5-.5,5.6,0,2.1,.3,3.9,1.1,5.4,.3,.5,.5,.8,.7,.9,.2,0,.4,.2,.7,.3,.7,.3,1.4,.3,2.3,0,.9-.2,1.6-.4,2.3-.7,2.9-.9,5.7-2.2,8.4-3.7s5.3-3.1,7.8-4.7c3.3-2.3,6.6-4.6,9.8-6.9s6.3-4.8,9.4-7.3c5.6-4.7,11-9.5,16.3-14.4s10.7-9.7,16.3-14.4l.8-.2h0Z"></path><path class="cls-5" d="M277.7,267.75c.7,0,1.2,.3,1.6,.9s.4,1.2,0,1.7l-.2,.2v.2c-.7,.8-1.3,1.4-2,1.8-1.1,.7-2.2,1.2-3.3,1.6-1.1,.4-2.2,.8-3.3,1.2-6.7,2.8-13.5,5-20.4,6.6-5.1,1.1-10.4,1.8-15.9,2.1-5.5,.3-10.8-.2-15.9-1.7-3.9,6.8-8.7,12.6-14.6,17.4-1.5,1.2-3.1,2.4-4.9,3.7-1.8,1.3-3.7,1.6-5.7,.9-1.2-.4-2.1-1-2.6-1.8s-.8-1.7-.8-2.7,.2-2,.5-3.1,.6-2,.9-2.8c1.3-3.5,2.9-7.1,4.7-11s4-7.3,6.7-10.4c-1.1-1.3-1.8-2.7-2.2-4.2-.4-2.3-.2-4.5,.5-6.7s1.8-4.2,3.1-6.1c1.1-1.5,2.6-3,4.5-4.7s4-2.9,6.1-3.8,4.2-1.1,6.2-.8c2,.3,3.7,1.7,5,4.1,.9,1.9,1.4,3.9,1.5,6.1,0,2.2-.2,4.4-.7,6.7-.5,2.3-1.2,4.5-2.1,6.7-.9,2.2-1.7,4.2-2.5,5.9l-.6,1.2c2.5,.7,5.1,1.1,7.8,1.2,5.6,.3,11.1-.1,16.5-1.2s10.7-2.5,15.9-4.4c3.6-1.1,7.3-2.5,11-4.2,.9-.4,1.8-.8,2.7-1.2,.9-.4,1.8-.5,2.9-.2l-.4,.8h0Zm-67.4,16.7c.4-.5,.8-1.1,1.2-1.6s.8-1.1,1.2-1.8c-2-.9-4.1-2.1-6.2-3.6h-.6c-.7,1.1-1.3,2.1-2,3.1s-1.3,2-2,3.1c-1.2,2.1-2.3,4.3-3.4,6.5-1.1,2.2-2,4.4-2.8,6.7-.1,.3-.3,.8-.6,1.6-.3,.8-.5,1.2-.8,1.2,.3,0,.6-.1,.9-.4,.3-.3,.6-.5,.9-.6,1.1-.7,2-1.4,2.9-2.2,.9-.8,1.8-1.6,2.7-2.4,1.6-1.5,3.1-3,4.6-4.6s2.8-3.3,4-5.2v.2h0Zm5-8c2.1-4.3,3.7-8.5,4.6-12.6,.3-1.5,.6-3.2,1-5.2s0-3.7-1-5c-.8-.9-1.8-1.3-2.9-1.1-1.1,.2-2.3,.7-3.4,1.4-1.1,.7-2.2,1.6-3.2,2.6s-1.7,1.8-2.1,2.3c-1.1,1.3-2,3-2.8,5s-.7,3.9,.2,5.6l1.8-1.2c.9-.7,1.8-.6,2.5,.2,.7,.8,.9,1.6,.5,2.4l-1.2,1.8c.7,.4,1.3,.8,1.8,1.2,.5,.4,1.1,.7,1.8,1l2.4,1.2v.4h0Z"></path></g><g><path class="cls-4" d="M200.7,266.55c.7-.5,1.4-.5,2.1,0,.7,.5,.8,1.2,.3,2-2.3,3.3-4.8,6.4-7.5,9.2-2.7,2.8-5.6,5.5-8.7,8.2-3.7,3.3-7.5,6.6-11.3,9.7s-7.7,6.2-11.7,9.3c-3.2,2.4-6.5,4.8-9.8,7.1-3.3,2.3-6.7,4.5-10.2,6.5-2.3,1.3-4.7,2.6-7.4,3.8s-5.3,1.8-8,1.8-4-.6-5.2-1.8c-1.2-1.2-2.1-2.7-2.6-4.4-.5-1.7-.8-3.6-.9-5.6,0-2,0-3.8,.3-5.4,.8-6.8,2.7-13.4,5.6-19.9,2.9-6.5,5.7-12.8,8.4-18.9,2.9-6.7,6-13.2,9.1-19.7s6.3-13,9.5-19.5h-1.8c-4.1,.3-8.2,.6-12.3,1.1s-8.1,1-12.1,1.7c-3.6,.7-7.2,1.4-10.8,2.2-3.6,.8-7.3,1.3-11,1.6-.7,.3-1.2,0-1.7-.9s-.2-1.5,.9-1.9c4.7-1.9,9.6-3.2,14.8-3.9,5.2-.7,10.3-1.4,15.2-2.1,6.7-.9,13.6-1.7,20.8-2.4,4.5-8.8,9.1-17.6,13.6-26.4,4.5-8.8,8.9-17.7,13.2-26.6,.5-1.1,1.4-1.3,2.6-.8,1.2,.5,1.6,1.3,1.2,2.4-.7,2.1-1.5,4.2-2.5,6.2s-2,4-3.1,6c-2.9,6.1-5.9,12.2-8.9,18.2-3,6-6,12.1-9.1,18.2l-1.2,2.4h2.4c2.5-.1,5-.2,7.5-.3,2.5,0,5-.1,7.5-.1h7.4c2.5,0,5,0,7.4,.5,1.1,.3,2.1,.7,3.2,1.3,1.1,.6,1.7,1.6,2,2.9,.3,1.1,.1,2-.5,2.8s-1.4,1.3-2.5,1.6c-.7,.1-1.1-.1-1.4-.8-.3-.7,0-1.1,.6-1.4,.5-.1,.7-.3,.5-.6-.2-.3-.5-.5-.9-.7s-.9-.4-1.4-.5-.9-.2-1-.2c-.9-.1-1.8-.2-2.7-.2h-14.7c-5.2,0-10.4,.2-15.6,.6-3.2,6.5-6.4,13.1-9.5,19.6s-6.2,13.2-9.3,20c-1.5,3.2-2.9,6.4-4.2,9.6s-2.7,6.4-4,9.6c-1.2,3.1-2.4,6.2-3.5,9.3-1.1,3.1-2,6.4-2.5,9.7-.3,1.6-.4,3.5-.5,5.6,0,2.1,.3,3.9,1.1,5.4,.3,.5,.5,.8,.7,.9,.2,0,.4,.2,.7,.3,.7,.3,1.4,.3,2.3,0,.9-.2,1.6-.4,2.3-.7,2.9-.9,5.7-2.2,8.4-3.7s5.3-3.1,7.8-4.7c3.3-2.3,6.6-4.6,9.8-6.9s6.3-4.8,9.4-7.3c5.6-4.7,11-9.5,16.3-14.4s10.7-9.7,16.3-14.4l.8-.2h0Z"></path><path class="cls-4" d="M277.7,267.75c.7,0,1.2,.3,1.6,.9s.4,1.2,0,1.7l-.2,.2v.2c-.7,.8-1.3,1.4-2,1.8-1.1,.7-2.2,1.2-3.3,1.6-1.1,.4-2.2,.8-3.3,1.2-6.7,2.8-13.5,5-20.4,6.6-5.1,1.1-10.4,1.8-15.9,2.1-5.5,.3-10.8-.2-15.9-1.7-3.9,6.8-8.7,12.6-14.6,17.4-1.5,1.2-3.1,2.4-4.9,3.7-1.8,1.3-3.7,1.6-5.7,.9-1.2-.4-2.1-1-2.6-1.8s-.8-1.7-.8-2.7,.2-2,.5-3.1,.6-2,.9-2.8c1.3-3.5,2.9-7.1,4.7-11s4-7.3,6.7-10.4c-1.1-1.3-1.8-2.7-2.2-4.2-.4-2.3-.2-4.5,.5-6.7s1.8-4.2,3.1-6.1c1.1-1.5,2.6-3,4.5-4.7s4-2.9,6.1-3.8,4.2-1.1,6.2-.8c2,.3,3.7,1.7,5,4.1,.9,1.9,1.4,3.9,1.5,6.1,0,2.2-.2,4.4-.7,6.7-.5,2.3-1.2,4.5-2.1,6.7-.9,2.2-1.7,4.2-2.5,5.9l-.6,1.2c2.5,.7,5.1,1.1,7.8,1.2,5.6,.3,11.1-.1,16.5-1.2s10.7-2.5,15.9-4.4c3.6-1.1,7.3-2.5,11-4.2,.9-.4,1.8-.8,2.7-1.2,.9-.4,1.8-.5,2.9-.2l-.4,.8h0Zm-67.4,16.7c.4-.5,.8-1.1,1.2-1.6s.8-1.1,1.2-1.8c-2-.9-4.1-2.1-6.2-3.6h-.6c-.7,1.1-1.3,2.1-2,3.1s-1.3,2-2,3.1c-1.2,2.1-2.3,4.3-3.4,6.5-1.1,2.2-2,4.4-2.8,6.7-.1,.3-.3,.8-.6,1.6-.3,.8-.5,1.2-.8,1.2,.3,0,.6-.1,.9-.4,.3-.3,.6-.5,.9-.6,1.1-.7,2-1.4,2.9-2.2,.9-.8,1.8-1.6,2.7-2.4,1.6-1.5,3.1-3,4.6-4.6s2.8-3.3,4-5.2v.2h0Zm5-8c2.1-4.3,3.7-8.5,4.6-12.6,.3-1.5,.6-3.2,1-5.2s0-3.7-1-5c-.8-.9-1.8-1.3-2.9-1.1-1.1,.2-2.3,.7-3.4,1.4-1.1,.7-2.2,1.6-3.2,2.6s-1.7,1.8-2.1,2.3c-1.1,1.3-2,3-2.8,5s-.7,3.9,.2,5.6l1.8-1.2c.9-.7,1.8-.6,2.5,.2,.7,.8,.9,1.6,.5,2.4l-1.2,1.8c.7,.4,1.3,.8,1.8,1.2,.5,.4,1.1,.7,1.8,1l2.4,1.2v.4h0Z"></path></g></g><g><path class="cls-3" d="M258.1,320.65h21V191.45h-21v-2.6h108.1v32.7h-2.1c-1.6-4.9-3.4-9.2-5.3-12.9-1.9-3.7-4.2-6.9-6.8-9.4-2.6-2.6-5.8-4.5-9.5-5.8-3.6-1.3-8.1-1.9-13.2-1.9h-31.4v61.2h12.3c4.2,0,7.7-.4,10.6-1.1,2.9-.8,5.4-2.2,7.5-4.2s3.8-4.9,5.3-8.5,2.9-8.2,4.2-13.9h2.1v58.8h-2.1c-.9-3.6-1.8-7.2-2.7-10.6s-2.3-6.4-4-9.1-4-4.8-6.8-6.3c-2.8-1.6-6.5-2.4-11-2.4h-15.3v65.4h21v2.6h-60.8v-2.6h0l-.1-.2Z"></path><path class="cls-3" d="M362.8,320.65h14.5v-75.8h-14.5v-2.6h30.4v19.1h.4c.5-1.9,1.3-4,2.5-6.4,1.1-2.4,2.7-4.7,4.7-6.9s4.4-4.1,7.3-5.6,6.3-2.3,10.3-2.3,5.4,.5,7.6,1.4c2.1,.9,3.9,2.1,5.3,3.6s2.4,3.1,3,5,.9,3.8,.9,5.7c0,4.2-.9,6.9-2.8,8.3s-4.1,2.1-6.6,2.1c-5.5,0-8.3-1.8-8.3-5.3s.1-2,.4-2.7c.2-.7,.5-1.4,.9-2.1,.3-.7,.6-1.5,.9-2.4,.2-.9,.4-2.1,.4-3.8,0-4-2.2-6-6.6-6s-4.2,.8-6.4,2.3c-2.3,1.5-4.4,3.7-6.3,6.6-2,2.9-3.6,6.4-4.9,10.5s-2,8.8-2,14.1v43.3h16.4v2.6h-47.2v-2.6h0l-.3-.1Z"></path><path class="cls-3" d="M441.2,279.75c0-6.2,1.4-11.9,4.1-17.2s6.2-9.9,10.4-13.7c4.2-3.8,8.9-6.8,14.2-9,5.2-2.1,10.4-3.2,15.4-3.2s10.2,1.1,15.4,3.2c5.2,2.1,9.9,5.1,14.2,9,4.2,3.8,7.7,8.4,10.4,13.7s4.1,11,4.1,17.2-1.3,11.5-3.8,16.7-5.8,9.8-9.9,13.7c-4.1,3.9-8.8,7-14.1,9.3-5.3,2.3-10.7,3.4-16.2,3.4s-11-1.1-16.2-3.4-10-5.4-14.1-9.3-7.4-8.5-9.9-13.7-3.8-10.8-3.8-16.7h-.2Zm18.8,0c0,8.9,.7,16.1,2.1,21.4s3.2,9.4,5.5,12.2c2.3,2.8,4.9,4.7,7.9,5.6s6.2,1.3,9.6,1.3,6.6-.4,9.6-1.3,5.7-2.7,7.9-5.6c2.3-2.8,4.1-6.9,5.5-12.2,1.4-5.3,2.1-12.4,2.1-21.4s-.5-13.9-1.5-19-2.5-9.3-4.6-12.5-4.7-5.5-7.8-6.9c-3.1-1.4-6.9-2.1-11.1-2.1s-8,.7-11.1,2.1-5.8,3.7-7.8,6.9c-2.1,3.2-3.6,7.4-4.6,12.5s-1.5,11.4-1.5,19h-.2Z"></path><path class="cls-3" d="M645.3,239.15h14.5v-24.4c1,.4,2,.7,2.8,.9s2.4,.4,4.5,.4,3.5-.2,4.9-.7c1.4-.4,2.7-1.2,4-2.2v25.9h26.8v2.6h-26.8v61.8c0,3.5,.3,6.4,1,8.6s1.6,3.9,2.7,5.1c1.1,1.2,2.4,2,3.7,2.4s2.6,.6,3.9,.6c4.4,0,8-1.6,10.7-4.8,2.7-3.2,4.4-6.9,5.2-11l2.6,1c-.4,1.6-.9,3.5-1.7,5.5s-1.9,3.9-3.5,5.8c-1.6,1.8-3.6,3.3-6.1,4.5s-5.7,1.8-9.5,1.8c-9.5,0-16-1.8-19.7-5.5-3.7-3.6-5.6-8.8-5.6-15.5v-60.1h-14.5v-2.6h0l.1-.1Z"></path><path class="cls-3" d="M715.2,293.75h2.1c.9,3,2,6.1,3.4,9.2s3.2,5.9,5.6,8.5,5.2,4.7,8.6,6.3c3.4,1.6,7.5,2.5,12.3,2.5s7.6-1.2,10.8-3.7,4.7-6.5,4.7-12-1.2-8.1-3.7-10.1-5.3-3.5-8.6-4.6l-14.7-5.1c-1.9-.6-3.9-1.4-6.1-2.4-2.2-.9-4.2-2.3-6.1-4s-3.4-3.9-4.6-6.5c-1.2-2.6-1.8-6-1.8-10.2s.7-6.8,2.1-9.8c1.4-3,3.3-5.7,5.7-7.9,2.4-2.3,5.3-4,8.6-5.3s7-1.9,10.9-1.9,5,.2,6.7,.7,3.2,.9,4.4,1.3,2.4,.9,3.4,1.3,2.2,.7,3.6,.7,2.4-.5,3-1.5h2.1v21.5h-2.1c-.9-2.8-1.9-5.5-3-8s-2.5-4.9-4.1-6.9-3.5-3.6-5.9-4.7c-2.3-1.1-5.1-1.7-8.2-1.7-6,0-10.7,1.4-14.1,4.1-3.3,2.7-5,6.3-5,10.9s1.4,7.1,4.2,9.2,7,4,12.6,5.8l13.8,4.5c5.9,2,10.8,4.8,14.5,8.3,3.8,3.5,5.7,8.2,5.7,14s-.7,6.7-2,10-3.3,6.1-5.9,8.6c-2.6,2.5-5.7,4.4-9.5,6-3.7,1.5-8,2.3-12.8,2.3s-5.3-.3-7.7-.9-4.5-1.2-6.4-1.8c-2-.6-3.8-1.2-5.4-1.8-1.6-.6-3.2-.9-4.5-.9s-2.4,.3-3,.9-1.1,1.2-1.5,1.8h-2.1v-26.5h0v-.2Z"></path></g><g><path class="cls-5" d="M586.9,68.55l-11.1,14.8,12.5,9.4,10.1-13.5,1.7,1.3-10.1,13.5,14.3,10.7-1.2,1.6-30.2-22.6,12.3-16.4,1.7,1.3v-.1Z"></path><path class="cls-2" d="M586.9,68.55l-11.1,14.8,12.5,9.4,10.1-13.5,1.7,1.3-10.1,13.5,14.3,10.7-1.2,1.6-30.2-22.6,12.3-16.4,1.7,1.3v-.1Z"></path></g><g><path class="cls-5" d="M621.5,83.85l-1.4,1.5-27.1-26.2,1.4-1.5,27.1,26.2Z"></path><path class="cls-2" d="M621.5,83.85l-1.4,1.5-27.1-26.2,1.4-1.5,27.1,26.2Z"></path></g><g><path class="cls-5" d="M645.3,58.95l.8-.9-20.2-26.9,1.6-1.2,22.6,30.2-2.6,1.9-37.6-14.1-.8,.9,20.2,26.9-1.6,1.2-22.6-30.2,2.6-1.9,37.6,14.1Z"></path><path class="cls-2" d="M645.3,58.95l.8-.9-20.2-26.9,1.6-1.2,22.6,30.2-2.6,1.9-37.6-14.1-.8,.9,20.2,26.9-1.6,1.2-22.6-30.2,2.6-1.9,37.6,14.1Z"></path></g><g><path class="cls-5" d="M682.4,45.05l-2,.9-8.6-9-16.6,7.4,.8,12.4-1.7,.8-2.8-40.1,3-1.3,27.9,28.9h0Zm-12.3-9.7l-16.8-17.4,1.7,24.1,15.2-6.7h-.1Z"></path><path class="cls-2" d="M682.4,45.05l-2,.9-8.6-9-16.6,7.4,.8,12.4-1.7,.8-2.8-40.1,3-1.3,27.9,28.9h0Zm-12.3-9.7l-16.8-17.4,1.7,24.1,15.2-6.7h-.1Z"></path></g><g><path class="cls-5" d="M710.6,35.15l1.1-.4-6.4-33,2-.4,7.2,37-3.2,.6-27.7-29.1-1.1,.4,6.4,33-2,.4-7.2-37,3.2-.6,27.7,29.1Z"></path><path class="cls-2" d="M710.6,35.15l1.1-.4-6.4-33,2-.4,7.2,37-3.2,.6-27.7-29.1-1.1,.4,6.4,33-2,.4-7.2-37,3.2-.6,27.7,29.1Z"></path></g><g><path class="cls-5" d="M751.8,34.35c-1.8,1.7-3.8,3-6,3.8s-4.6,1.2-7,1-4.7-.8-6.8-1.9-4-2.6-5.5-4.5c-1.6-1.8-2.7-4-3.5-6.4-.7-2.4-1-5-.9-7.6,.2-2.6,.8-5.1,1.8-7.4,1-2.3,2.4-4.3,4.2-6s3.8-3,6-3.8,4.6-1.2,7-1,4.7,.8,6.8,1.9c2.1,1.1,4,2.6,5.5,4.5,1.2,1.5,2.1,3,2.8,4.7l-2,.8c-.6-1.5-1.4-2.8-2.4-4-1.3-1.7-3-3-4.9-4s-3.9-1.6-6-1.7c-2.1-.1-4.2,.2-6.2,.9-2,.8-3.8,1.9-5.3,3.3-1.6,1.6-2.9,3.4-3.8,5.4-.9,2-1.4,4.2-1.6,6.5s.1,4.5,.8,6.6,1.7,4,3.1,5.8c1.3,1.7,3,3,4.9,4s3.9,1.6,6,1.7,4.2-.2,6.2-.9c2-.8,3.8-1.9,5.3-3.3,1.1-1.1,2.1-2.3,2.9-3.7l1.8,1c-.9,1.5-2,3-3.4,4.3h.2Z"></path><path class="cls-2" d="M751.8,34.35c-1.8,1.7-3.8,3-6,3.8s-4.6,1.2-7,1-4.7-.8-6.8-1.9-4-2.6-5.5-4.5c-1.6-1.8-2.7-4-3.5-6.4-.7-2.4-1-5-.9-7.6,.2-2.6,.8-5.1,1.8-7.4,1-2.3,2.4-4.3,4.2-6s3.8-3,6-3.8,4.6-1.2,7-1,4.7,.8,6.8,1.9c2.1,1.1,4,2.6,5.5,4.5,1.2,1.5,2.1,3,2.8,4.7l-2,.8c-.6-1.5-1.4-2.8-2.4-4-1.3-1.7-3-3-4.9-4s-3.9-1.6-6-1.7c-2.1-.1-4.2,.2-6.2,.9-2,.8-3.8,1.9-5.3,3.3-1.6,1.6-2.9,3.4-3.8,5.4-.9,2-1.4,4.2-1.6,6.5s.1,4.5,.8,6.6,1.7,4,3.1,5.8c1.3,1.7,3,3,4.9,4s3.9,1.6,6,1.7,4.2-.2,6.2-.9c2-.8,3.8-1.9,5.3-3.3,1.1-1.1,2.1-2.3,2.9-3.7l1.8,1c-.9,1.5-2,3-3.4,4.3h.2Z"></path></g><g><path class="cls-5" d="M764.4,42.65l-2-.5,8.7-36.7,2,.5-8.7,36.7Z"></path><path class="cls-2" d="M764.4,42.65l-2-.5,8.7-36.7,2,.5-8.7,36.7Z"></path></g><g><path class="cls-5" d="M798.9,54.85l-2.1-.8,.4-12.4-16.8-6.8-8.3,9.3-1.8-.7,26.8-29.9,3.1,1.2-1.3,40.1h0Zm-1.6-15.6l.7-24.2-16.1,18,15.4,6.2h0Z"></path><path class="cls-2" d="M798.9,54.85l-2.1-.8,.4-12.4-16.8-6.8-8.3,9.3-1.8-.7,26.8-29.9,3.1,1.2-1.3,40.1h0Zm-1.6-15.6l.7-24.2-16.1,18,15.4,6.2h0Z"></path></g><g><path class="cls-5" d="M805.8,56.95l15.5,10.1-1.2,1.8-17.2-11.2,20.6-31.6,1.7,1.1-19.5,29.8h.1Z"></path><path class="cls-2" d="M805.8,56.95l15.5,10.1-1.2,1.8-17.2-11.2,20.6-31.6,1.7,1.1-19.5,29.8h.1Z"></path></g><g><path class="cls-5" d="M863.2,87.05l11.5-16.9,1.3,1.8-9.6,14.2,16.4-5,1.2,1.6-19.2,5.9-10.5,15.4,37.1-11.3,1.2,1.6-38.3,11.7-2-2.6,9.3-13.8-15.9,4.9-2-2.6,22.4-33.2,1.3,1.8-21.7,32.1,17.5-5.3v-.3Z"></path><path class="cls-2" d="M863.2,87.05l11.5-16.9,1.3,1.8-9.6,14.2,16.4-5,1.2,1.6-19.2,5.9-10.5,15.4,37.1-11.3,1.2,1.6-38.3,11.7-2-2.6,9.3-13.8-15.9,4.9-2-2.6,22.4-33.2,1.3,1.8-21.7,32.1,17.5-5.3v-.3Z"></path></g><g><path class="cls-5" d="M903.8,126.65l-7.2-17-14.4,6.1,6.5,15.5-2,.8-6.5-15.5-14.4,6.1,7.2,17-2,.8-8-18.9,34.8-14.7,8,18.9-2,.8v.1Z"></path><path class="cls-2" d="M903.8,126.65l-7.2-17-14.4,6.1,6.5,15.5-2,.8-6.5-15.5-14.4,6.1,7.2,17-2,.8-8-18.9,34.8-14.7,8,18.9-2,.8v.1Z"></path></g><g><path class="cls-5" d="M875.4,148.15l4.1,18-2.1,.5-4.5-20,36.8-8.4,.5,2-34.7,7.9h-.1Z"></path><path class="cls-2" d="M875.4,148.15l4.1,18-2.1,.5-4.5-20,36.8-8.4,.5,2-34.7,7.9h-.1Z"></path></g><g><path class="cls-5" d="M880.2,174.65l.9,18.5h-2.1c0,.1-1-20.4-1-20.4l37.7-1.8v2l-35.5,1.7h0Z"></path><path class="cls-2" d="M880.2,174.65l.9,18.5h-2.1c0,.1-1-20.4-1-20.4l37.7-1.8v2l-35.5,1.7h0Z"></path></g><g><path class="cls-5" d="M878.9,224.35v1.2l33.2,5.3-.3,2-37.3-5.9,.5-3.2,36.8-16.1v-1.2l-33.2-5.3,.3-2,37.3,5.9-.5,3.2-36.8,16.1h0Z"></path><path class="cls-2" d="M878.9,224.35v1.2l33.2,5.3-.3,2-37.3-5.9,.5-3.2,36.8-16.1v-1.2l-33.2-5.3,.3-2,37.3,5.9-.5,3.2-36.8,16.1h0Z"></path></g><g><path class="cls-5" d="M898,266.55l6.5-17.3-14.7-5.5-5.9,15.8-2-.8,5.9-15.8-14.7-5.5-6.5,17.3-2-.8,7.2-19.2,35.3,13.3-7.2,19.2-2-.8,.1,.1Z"></path><path class="cls-2" d="M898,266.55l6.5-17.3-14.7-5.5-5.9,15.8-2-.8,5.9-15.8-14.7-5.5-6.5,17.3-2-.8,7.2-19.2,35.3,13.3-7.2,19.2-2-.8,.1,.1Z"></path></g><g><path class="cls-5" d="M862.1,265.45c-1.8,1-3.2,2.5-4.3,4.3-.8,1.3-1.3,2.6-1.7,3.9-.3,1.3-.5,2.6-.3,3.8,.2,1.2,.6,2.3,1.2,3.3s1.5,1.8,2.5,2.4c1.4,.9,3,1.2,4.6,.9,1.7-.2,3.1-1,4.4-2.2h0l6-6.4h0c1.6-1.6,3.6-2.6,5.8-3s4.2,0,6,1.1c1.3,.8,2.3,1.7,3.1,2.9,.8,1.1,1.4,2.4,1.6,3.6,.5,2.8-.2,5.6-2,8.6-.8,1.3-1.8,2.5-3,3.4s-2.5,1.6-3.9,2.1c-1.1,.4-2.3,.5-3.6,.4l.4-2c1,0,1.9-.1,2.8-.4,1-.3,2-.9,3-1.7,1-.8,1.8-1.7,2.4-2.9,.7-1.2,1.2-2.3,1.5-3.5s.3-2.3,.2-3.4c-.2-1.1-.6-2.1-1.2-3-.6-.9-1.4-1.7-2.4-2.3-1.4-.8-2.9-1.1-4.6-.8-1.7,.3-3.2,1.1-4.6,2.5l-6,6.4h0c-1.6,1.5-3.5,2.5-5.6,2.8-2.2,.3-4.2-.1-6-1.2-1.3-.8-2.3-1.8-3.2-3-.8-1.2-1.4-2.5-1.6-3.9-.4-3,.3-6.2,2.3-9.4,1.8-3,4.2-5,7.3-6,1.4-.5,2.9-.7,4.4-.5l-.3,2c-1.7-.1-3.4,.3-5.2,1.3v-.1Z"></path><path class="cls-2" d="M862.1,265.45c-1.8,1-3.2,2.5-4.3,4.3-.8,1.3-1.3,2.6-1.7,3.9-.3,1.3-.5,2.6-.3,3.8,.2,1.2,.6,2.3,1.2,3.3s1.5,1.8,2.5,2.4c1.4,.9,3,1.2,4.6,.9,1.7-.2,3.1-1,4.4-2.2h0l6-6.4h0c1.6-1.6,3.6-2.6,5.8-3s4.2,0,6,1.1c1.3,.8,2.3,1.7,3.1,2.9,.8,1.1,1.4,2.4,1.6,3.6,.5,2.8-.2,5.6-2,8.6-.8,1.3-1.8,2.5-3,3.4s-2.5,1.6-3.9,2.1c-1.1,.4-2.3,.5-3.6,.4l.4-2c1,0,1.9-.1,2.8-.4,1-.3,2-.9,3-1.7,1-.8,1.8-1.7,2.4-2.9,.7-1.2,1.2-2.3,1.5-3.5s.3-2.3,.2-3.4c-.2-1.1-.6-2.1-1.2-3-.6-.9-1.4-1.7-2.4-2.3-1.4-.8-2.9-1.1-4.6-.8-1.7,.3-3.2,1.1-4.6,2.5l-6,6.4h0c-1.6,1.5-3.5,2.5-5.6,2.8-2.2,.3-4.2-.1-6-1.2-1.3-.8-2.3-1.8-3.2-3-.8-1.2-1.4-2.5-1.6-3.9-.4-3,.3-6.2,2.3-9.4,1.8-3,4.2-5,7.3-6,1.4-.5,2.9-.7,4.4-.5l-.3,2c-1.7-.1-3.4,.3-5.2,1.3v-.1Z"></path></g><g><path class="cls-5" d="M844.7,290.75c-2,.7-3.7,1.8-5.1,3.4-1,1.1-1.8,2.3-2.4,3.5-.6,1.2-1,2.5-1.1,3.6,0,1.2,.1,2.4,.6,3.5,.4,1.1,1.1,2,1.9,2.8,1.2,1.1,2.7,1.7,4.3,1.8,1.7,0,3.2-.4,4.7-1.3h0l7.1-5.1h0c1.9-1.3,4-1.9,6.3-1.8,2.2,0,4.1,.8,5.7,2.3,1.1,1,1.9,2.2,2.5,3.4,.6,1.3,.9,2.6,.8,3.9,0,2.8-1.3,5.5-3.6,8-1.1,1.1-2.2,2.1-3.6,2.7-1.3,.7-2.7,1.1-4.2,1.3-1.1,.2-2.3,0-3.6-.3l.8-1.9c.9,.2,1.9,.2,2.8,.1,1.1-.1,2.2-.5,3.3-1.1s2.1-1.4,2.9-2.3c.9-1,1.6-2.1,2.2-3.2,.5-1.1,.8-2.2,.8-3.3s-.2-2.2-.6-3.2c-.4-1-1.1-1.9-1.9-2.7-1.2-1.1-2.6-1.6-4.3-1.7-1.7,0-3.4,.5-5,1.5l-7.1,5.1h0c-1.9,1.2-3.9,1.7-6.1,1.6-2.2-.1-4.1-.9-5.6-2.4-1.1-1-1.9-2.2-2.5-3.5-.6-1.4-.8-2.7-.8-4.1,.2-3.1,1.5-6,4.1-8.7,2.3-2.6,5.1-4,8.3-4.5,1.5-.2,3-.1,4.5,.3l-.7,1.9c-1.6-.5-3.4-.4-5.4,.3v.1Z"></path><path class="cls-2" d="M844.7,290.75c-2,.7-3.7,1.8-5.1,3.4-1,1.1-1.8,2.3-2.4,3.5-.6,1.2-1,2.5-1.1,3.6,0,1.2,.1,2.4,.6,3.5,.4,1.1,1.1,2,1.9,2.8,1.2,1.1,2.7,1.7,4.3,1.8,1.7,0,3.2-.4,4.7-1.3h0l7.1-5.1h0c1.9-1.3,4-1.9,6.3-1.8,2.2,0,4.1,.8,5.7,2.3,1.1,1,1.9,2.2,2.5,3.4,.6,1.3,.9,2.6,.8,3.9,0,2.8-1.3,5.5-3.6,8-1.1,1.1-2.2,2.1-3.6,2.7-1.3,.7-2.7,1.1-4.2,1.3-1.1,.2-2.3,0-3.6-.3l.8-1.9c.9,.2,1.9,.2,2.8,.1,1.1-.1,2.2-.5,3.3-1.1s2.1-1.4,2.9-2.3c.9-1,1.6-2.1,2.2-3.2,.5-1.1,.8-2.2,.8-3.3s-.2-2.2-.6-3.2c-.4-1-1.1-1.9-1.9-2.7-1.2-1.1-2.6-1.6-4.3-1.7-1.7,0-3.4,.5-5,1.5l-7.1,5.1h0c-1.9,1.2-3.9,1.7-6.1,1.6-2.2-.1-4.1-.9-5.6-2.4-1.1-1-1.9-2.2-2.5-3.5-.6-1.4-.8-2.7-.8-4.1,.2-3.1,1.5-6,4.1-8.7,2.3-2.6,5.1-4,8.3-4.5,1.5-.2,3-.1,4.5,.3l-.7,1.9c-1.6-.5-3.4-.4-5.4,.3v.1Z"></path></g><g><path class="cls-6" d="M.8,166.85H21.8V37.65H.8v-2.6H41.2c1.5,0,3-.2,4.5-.3h9c7.4,0,14,.4,19.6,1.2,5.7,.8,11,3.2,15.9,7.1,4.4,3.4,7.5,7.2,9.4,11.5,1.8,4.3,2.7,8.3,2.7,12.1s-.3,4.3-1,7.3-2.2,6-4.5,9.1c-2.3,3.1-5.7,5.9-10.1,8.5s-10.3,4.3-17.6,5.2v.4c2,.3,4.8,.7,8.2,1.4,3.5,.7,7,1.9,10.6,3.5s6.9,3.8,9.9,6.5,5.2,6.2,6.4,10.5c.8,2.5,1.3,5.4,1.6,8.6,.3,3.2,.6,6.5,.8,9.9,.2,3.4,.4,6.7,.6,9.8s.5,5.8,1,7.9c.8,3.3,2,6.2,3.6,8.9,1.6,2.6,4.3,4,7.9,4s3.3-.3,5.1-.9c1.8-.6,3.3-1.6,4.7-3l1.7,2.1c-.6,.5-1.4,1-2.2,1.6s-1.9,1.1-3.1,1.6c-1.3,.5-2.8,.9-4.6,1.2-1.8,.3-4.1,.5-6.7,.5-5,0-9.2-.6-12.6-1.9-3.3-1.3-6-3.1-8-5.6s-3.5-5.5-4.4-9.1-1.6-7.8-2-12.6l-1.3-17.2c-.5-6.3-1.8-11.2-3.8-14.7s-4.4-6.1-7.1-7.7c-2.7-1.6-5.5-2.6-8.4-2.9-2.9-.3-5.4-.5-7.6-.5h-18.9v68.2h21v2.6H.8v-3ZM40.7,96.05h17.4c3.5,0,6.7-.4,9.6-1.3,2.9-.9,5.4-2.4,7.5-4.6,2.1-2.2,3.7-5.2,4.8-9,1.1-3.8,1.7-8.6,1.7-14.4s-.9-11.8-2.6-15.8-3.9-7-6.6-9-5.7-3.3-9.1-4c-3.3-.6-6.6-.9-9.9-.9h-6.9c-2.3,0-4.3,.2-6,.5v58.4l.1,.1Z"></path><path class="cls-1" d="M.8,166.85H21.8V37.65H.8v-2.6H41.2c1.5,0,3-.2,4.5-.3h9c7.4,0,14,.4,19.6,1.2,5.7,.8,11,3.2,15.9,7.1,4.4,3.4,7.5,7.2,9.4,11.5,1.8,4.3,2.7,8.3,2.7,12.1s-.3,4.3-1,7.3-2.2,6-4.5,9.1c-2.3,3.1-5.7,5.9-10.1,8.5s-10.3,4.3-17.6,5.2v.4c2,.3,4.8,.7,8.2,1.4,3.5,.7,7,1.9,10.6,3.5s6.9,3.8,9.9,6.5,5.2,6.2,6.4,10.5c.8,2.5,1.3,5.4,1.6,8.6,.3,3.2,.6,6.5,.8,9.9,.2,3.4,.4,6.7,.6,9.8s.5,5.8,1,7.9c.8,3.3,2,6.2,3.6,8.9,1.6,2.6,4.3,4,7.9,4s3.3-.3,5.1-.9c1.8-.6,3.3-1.6,4.7-3l1.7,2.1c-.6,.5-1.4,1-2.2,1.6s-1.9,1.1-3.1,1.6c-1.3,.5-2.8,.9-4.6,1.2-1.8,.3-4.1,.5-6.7,.5-5,0-9.2-.6-12.6-1.9-3.3-1.3-6-3.1-8-5.6s-3.5-5.5-4.4-9.1-1.6-7.8-2-12.6l-1.3-17.2c-.5-6.3-1.8-11.2-3.8-14.7s-4.4-6.1-7.1-7.7c-2.7-1.6-5.5-2.6-8.4-2.9-2.9-.3-5.4-.5-7.6-.5h-18.9v68.2h21v2.6H.8v-3ZM40.7,96.05h17.4c3.5,0,6.7-.4,9.6-1.3,2.9-.9,5.4-2.4,7.5-4.6,2.1-2.2,3.7-5.2,4.8-9,1.1-3.8,1.7-8.6,1.7-14.4s-.9-11.8-2.6-15.8-3.9-7-6.6-9-5.7-3.3-9.1-4c-3.3-.6-6.6-.9-9.9-.9h-6.9c-2.3,0-4.3,.2-6,.5v58.4l.1,.1Z"></path><path class="cls-6" d="M135.4,129.15c0-6.2,1.4-11.9,4.1-17.2,2.7-5.3,6.2-9.9,10.4-13.7s8.9-6.8,14.2-9c5.2-2.1,10.4-3.2,15.4-3.2s10.2,1.1,15.4,3.2c5.2,2.1,9.9,5.1,14.2,9,4.2,3.8,7.7,8.4,10.4,13.7s4.1,11,4.1,17.2-1.3,11.5-3.8,16.7-5.8,9.8-9.9,13.7c-4.1,3.9-8.8,7-14.1,9.3s-10.7,3.4-16.2,3.4-11-1.1-16.2-3.4c-5.3-2.3-10-5.4-14.1-9.3-4.1-3.9-7.4-8.5-9.9-13.7s-3.8-10.8-3.8-16.7h-.2Zm18.8,0c0,8.9,.7,16.1,2.1,21.3,1.4,5.3,3.2,9.4,5.5,12.2s4.9,4.7,7.9,5.6c3,.9,6.2,1.3,9.6,1.3s6.6-.4,9.6-1.3c3-.9,5.7-2.7,7.9-5.6,2.3-2.8,4.1-6.9,5.5-12.2s2.1-12.4,2.1-21.3-.5-13.9-1.5-19-2.6-9.3-4.6-12.5c-2.1-3.2-4.7-5.5-7.8-6.9s-6.9-2.1-11.1-2.1-8,.7-11.1,2.1c-3.1,1.4-5.8,3.7-7.8,6.9-2.1,3.2-3.6,7.4-4.6,12.5s-1.5,11.4-1.5,19h-.2Z"></path><path class="cls-1" d="M135.4,129.15c0-6.2,1.4-11.9,4.1-17.2,2.7-5.3,6.2-9.9,10.4-13.7s8.9-6.8,14.2-9c5.2-2.1,10.4-3.2,15.4-3.2s10.2,1.1,15.4,3.2c5.2,2.1,9.9,5.1,14.2,9,4.2,3.8,7.7,8.4,10.4,13.7s4.1,11,4.1,17.2-1.3,11.5-3.8,16.7-5.8,9.8-9.9,13.7c-4.1,3.9-8.8,7-14.1,9.3s-10.7,3.4-16.2,3.4-11-1.1-16.2-3.4c-5.3-2.3-10-5.4-14.1-9.3-4.1-3.9-7.4-8.5-9.9-13.7s-3.8-10.8-3.8-16.7h-.2Zm18.8,0c0,8.9,.7,16.1,2.1,21.3,1.4,5.3,3.2,9.4,5.5,12.2s4.9,4.7,7.9,5.6c3,.9,6.2,1.3,9.6,1.3s6.6-.4,9.6-1.3c3-.9,5.7-2.7,7.9-5.6,2.3-2.8,4.1-6.9,5.5-12.2s2.1-12.4,2.1-21.3-.5-13.9-1.5-19-2.6-9.3-4.6-12.5c-2.1-3.2-4.7-5.5-7.8-6.9s-6.9-2.1-11.1-2.1-8,.7-11.1,2.1c-3.1,1.4-5.8,3.7-7.8,6.9-2.1,3.2-3.6,7.4-4.6,12.5s-1.5,11.4-1.5,19h-.2Z"></path><path class="cls-6" d="M242.3,129.15c0-6.2,1.4-11.9,4.1-17.2,2.7-5.3,6.2-9.9,10.4-13.7,4.2-3.8,8.9-6.8,14.2-9,5.2-2.1,10.4-3.2,15.4-3.2s10.2,1.1,15.4,3.2c5.2,2.1,9.9,5.1,14.2,9,4.2,3.8,7.7,8.4,10.4,13.7,2.7,5.3,4.1,11,4.1,17.2s-1.3,11.5-3.8,16.7-5.8,9.8-9.9,13.7-8.8,7-14.1,9.3c-5.3,2.3-10.7,3.4-16.2,3.4s-11-1.1-16.2-3.4c-5.3-2.3-10-5.4-14.1-9.3-4.1-3.9-7.4-8.5-9.9-13.7s-3.8-10.8-3.8-16.7h-.2Zm18.9,0c0,8.9,.7,16.1,2.1,21.3,1.4,5.3,3.2,9.4,5.5,12.2s4.9,4.7,7.9,5.6c3,.9,6.2,1.3,9.6,1.3s6.6-.4,9.6-1.3c3-.9,5.7-2.7,7.9-5.6,2.3-2.8,4.1-6.9,5.5-12.2s2.1-12.4,2.1-21.3-.5-13.9-1.5-19-2.6-9.3-4.6-12.5c-2.1-3.2-4.7-5.5-7.8-6.9-3.1-1.4-6.9-2.1-11.1-2.1s-8,.7-11.1,2.1c-3.1,1.4-5.8,3.7-7.8,6.9-2.1,3.2-3.6,7.4-4.6,12.5s-1.5,11.4-1.5,19h-.2Z"></path><path class="cls-1" d="M242.3,129.15c0-6.2,1.4-11.9,4.1-17.2,2.7-5.3,6.2-9.9,10.4-13.7,4.2-3.8,8.9-6.8,14.2-9,5.2-2.1,10.4-3.2,15.4-3.2s10.2,1.1,15.4,3.2c5.2,2.1,9.9,5.1,14.2,9,4.2,3.8,7.7,8.4,10.4,13.7,2.7,5.3,4.1,11,4.1,17.2s-1.3,11.5-3.8,16.7-5.8,9.8-9.9,13.7-8.8,7-14.1,9.3c-5.3,2.3-10.7,3.4-16.2,3.4s-11-1.1-16.2-3.4c-5.3-2.3-10-5.4-14.1-9.3-4.1-3.9-7.4-8.5-9.9-13.7s-3.8-10.8-3.8-16.7h-.2Zm18.9,0c0,8.9,.7,16.1,2.1,21.3,1.4,5.3,3.2,9.4,5.5,12.2s4.9,4.7,7.9,5.6c3,.9,6.2,1.3,9.6,1.3s6.6-.4,9.6-1.3c3-.9,5.7-2.7,7.9-5.6,2.3-2.8,4.1-6.9,5.5-12.2s2.1-12.4,2.1-21.3-.5-13.9-1.5-19-2.6-9.3-4.6-12.5c-2.1-3.2-4.7-5.5-7.8-6.9-3.1-1.4-6.9-2.1-11.1-2.1s-8,.7-11.1,2.1c-3.1,1.4-5.8,3.7-7.8,6.9-2.1,3.2-3.6,7.4-4.6,12.5s-1.5,11.4-1.5,19h-.2Z"></path><g><path class="cls-6" d="M337.1,88.45h14.5v-24.4c1,.4,2,.7,2.8,.9,.9,.3,2.4,.4,4.5,.4s3.5-.2,4.9-.7c1.4-.4,2.7-1.2,4-2.2v25.9h26.8v2.6h-26.8v61.8c0,3.5,.3,6.4,1,8.6,.7,2.2,1.6,3.9,2.7,5.1,1.1,1.2,2.4,2,3.7,2.4s2.6,.6,3.9,.6c4.4,0,8-1.6,10.7-4.8s4.4-6.9,5.2-11.1l2.6,.9c-.4,1.6-.9,3.5-1.7,5.5-.8,2-1.9,3.9-3.5,5.8-1.6,1.8-3.6,3.3-6.1,4.5s-5.7,1.8-9.4,1.8c-9.4,0-16-1.8-19.7-5.5s-5.6-8.8-5.6-15.5v-60.1h-14.5v-2.5Z"></path><path class="cls-6" d="M407.4,143.05h2.1c.9,3,2,6.1,3.4,9.2,1.4,3.1,3.2,5.9,5.6,8.5,2.3,2.6,5.2,4.7,8.6,6.3s7.5,2.5,12.3,2.5,7.6-1.2,10.8-3.7c3.1-2.5,4.7-6.5,4.7-12s-1.2-8.2-3.7-10.1c-2.5-2-5.3-3.5-8.6-4.6l-14.7-5.1c-1.9-.6-3.9-1.4-6.1-2.4-2.2-.9-4.2-2.3-6.1-4s-3.4-3.9-4.6-6.5-1.8-6-1.8-10.2,.7-6.8,2.1-9.8,3.3-5.7,5.7-7.9c2.4-2.3,5.3-4,8.6-5.3,3.3-1.3,7-1.9,10.9-1.9s5,.2,6.7,.7c1.7,.4,3.2,.9,4.4,1.3,1.3,.4,2.4,.9,3.4,1.3,1,.4,2.2,.7,3.6,.7s2.4-.5,3-1.5h2.1v21.5h-2.1c-.9-2.8-1.9-5.4-3-8s-2.5-4.9-4.1-6.9-3.5-3.6-5.9-4.7c-2.3-1.1-5.1-1.7-8.2-1.7-6,0-10.7,1.4-14.1,4.1-3.3,2.7-5,6.3-5,10.9s1.4,7.1,4.3,9.2c2.8,2.1,7,4,12.6,5.8l13.8,4.5c5.9,2,10.8,4.8,14.5,8.3,3.8,3.5,5.7,8.2,5.7,14s-.7,6.7-2,10-3.3,6.1-5.9,8.6-5.7,4.4-9.4,6c-3.7,1.5-8,2.3-12.8,2.3s-5.3-.3-7.7-.8c-2.3-.6-4.5-1.2-6.4-1.8-2-.6-3.7-1.2-5.4-1.8-1.6-.6-3.1-.8-4.5-.8s-2.4,.3-3,.8c-.6,.6-1.1,1.2-1.5,1.8h-2.1v-26.4l-.2-.4Z"></path></g><g><path class="cls-1" d="M337.1,88.45h14.5v-24.4c1,.4,2,.7,2.8,.9,.9,.3,2.4,.4,4.5,.4s3.5-.2,4.9-.7c1.4-.4,2.7-1.2,4-2.2v25.9h26.8v2.6h-26.8v61.8c0,3.5,.3,6.4,1,8.6,.7,2.2,1.6,3.9,2.7,5.1,1.1,1.2,2.4,2,3.7,2.4s2.6,.6,3.9,.6c4.4,0,8-1.6,10.7-4.8s4.4-6.9,5.2-11.1l2.6,.9c-.4,1.6-.9,3.5-1.7,5.5-.8,2-1.9,3.9-3.5,5.8-1.6,1.8-3.6,3.3-6.1,4.5s-5.7,1.8-9.4,1.8c-9.4,0-16-1.8-19.7-5.5s-5.6-8.8-5.6-15.5v-60.1h-14.5v-2.5Z"></path><path class="cls-1" d="M407.4,143.05h2.1c.9,3,2,6.1,3.4,9.2,1.4,3.1,3.2,5.9,5.6,8.5,2.3,2.6,5.2,4.7,8.6,6.3s7.5,2.5,12.3,2.5,7.6-1.2,10.8-3.7c3.1-2.5,4.7-6.5,4.7-12s-1.2-8.2-3.7-10.1c-2.5-2-5.3-3.5-8.6-4.6l-14.7-5.1c-1.9-.6-3.9-1.4-6.1-2.4-2.2-.9-4.2-2.3-6.1-4s-3.4-3.9-4.6-6.5-1.8-6-1.8-10.2,.7-6.8,2.1-9.8,3.3-5.7,5.7-7.9c2.4-2.3,5.3-4,8.6-5.3,3.3-1.3,7-1.9,10.9-1.9s5,.2,6.7,.7c1.7,.4,3.2,.9,4.4,1.3,1.3,.4,2.4,.9,3.4,1.3,1,.4,2.2,.7,3.6,.7s2.4-.5,3-1.5h2.1v21.5h-2.1c-.9-2.8-1.9-5.4-3-8s-2.5-4.9-4.1-6.9-3.5-3.6-5.9-4.7c-2.3-1.1-5.1-1.7-8.2-1.7-6,0-10.7,1.4-14.1,4.1-3.3,2.7-5,6.3-5,10.9s1.4,7.1,4.3,9.2c2.8,2.1,7,4,12.6,5.8l13.8,4.5c5.9,2,10.8,4.8,14.5,8.3,3.8,3.5,5.7,8.2,5.7,14s-.7,6.7-2,10-3.3,6.1-5.9,8.6-5.7,4.4-9.4,6c-3.7,1.5-8,2.3-12.8,2.3s-5.3-.3-7.7-.8c-2.3-.6-4.5-1.2-6.4-1.8-2-.6-3.7-1.2-5.4-1.8-1.6-.6-3.1-.8-4.5-.8s-2.4,.3-3,.8c-.6,.6-1.1,1.2-1.5,1.8h-2.1v-26.4l-.2-.4Z"></path></g></g><g><path class="cls-6" d="M578.7,204.25c4.2,.8,7.3,4.4,7.6,8.6,0,.7,1.4,.6,1.8,.4,5.9-2,12.2-3,18.5-2.7,2,0,4.5,0,6.5,.9s3.3,2.8,4.7,4.3l2.6-1.4c-4.4-1.7-9.4-3-14.2-2.9-2,0-3.7,.7-4.9,2.3-.9,1.2-1.3,2.1-1.4,3.7l3-.8c-2.4-2.7-5.6-2.9-9-2.4-3.6,.5-7,2.6-8.7,5.9l2.9-.5c-2.5-2.2-5.5-4.4-8.7-5.4-2.8-.8-6,.2-8.7,.9l1.8,.4c-.8-1.6,1.2-3.6-.8-4.6-2.1-1.1-5-.9-7.2-.6l1.1,1.2c2-1.9,5.1-2.6,7.7-3,2.1-.3,4.8,.3,5.9,2.2,.6,.9,3.1,0,3-1-.3-2.3-.5-4.6-.7-6.9,0-1.1-3.2-.4-3.1,.8,.2,2.3,.5,4.6,.7,6.9l3-1c-1.6-2.6-5.6-3.2-8.4-2.8-3.7,.5-7.8,1.6-10.6,4.2-.9,.8,.3,1.3,1.1,1.2,1-.1,2-.2,2.9-.1,.5,0,2.1,0,2.4,.5,.3,.4-.1,1.2-.2,1.6-.2,.7-.2,1.4,.2,2.1,.3,.6,1.2,.6,1.8,.4,2-.5,4.5-1.5,6.5-.8,2.8,1,5.3,2.9,7.5,4.8,.7,.6,2.4,.3,2.9-.5,1.2-2.2,3.2-3.9,5.8-4.2s4.4-.2,6.2,1.8c.6,.7,2.9,.2,3-.8s.2-1.8,.8-2.7c.3-.3,.5-.8,.9-1,.5-.2,1.5,0,2.1,0,3.9,.3,7.6,1.1,11.2,2.5,.7,.3,1.4,.2,2-.2,.4-.2,1.1-.8,.6-1.2-1.5-1.6-3-3.6-5.1-4.6-2.2-1-4.9-1.1-7.3-1.2-7-.4-14,.6-20.5,2.9l1.8,.4c-.4-4.7-4.2-8.7-8.8-9.5-.7-.1-1.6,0-2.2,.6-.4,.4-.4,1.1,.3,1.2h0l-.3,.1Z"></path><path class="cls-6" d="M573.5,206.75c-1.5-3-4.6-4.9-7.3-6.6-1.4-.9-2.7-1.8-4.2-2.3-2.1-.7-4.3-.9-6.5-.6l.5,.7c1.9-1.4,4-1.9,6.3-2.1,2.6-.2,4.7,.5,7,1.6,3.6,1.6,7.3,3.5,9.1,7.2,.4,.8,3.3-.3,3.1-.8-2.2-4.6-7.3-6.8-11.8-8.5-2.7-1.1-5.5-.9-8.3-.4s-5.5,1.3-7.7,2.9c-.7,.5-.1,.8,.5,.7,2-.2,4.1,0,6,.8,1.3,.6,2.6,1.5,3.8,2.3,2.4,1.6,5.2,3.4,6.5,6,.4,.8,3.3-.3,3.1-.8h0l-.1-.1Z"></path><path class="cls-6" d="M588.8,208.25c1.9-5.2,7.3-8.9,12.7-9.6,6.4-.8,12.7,2.3,17.1,6.8l2.3-1.6c-2.1-.4-4.2-.8-6.3-.6-1.8,.2-3.5,.7-5.2,1.3-2.8,.9-5.4,2.4-8,3.8-1.9,1-.2,2.3,1.3,1.5,2.2-1.1,4.4-2.5,6.8-3.3,1.2-.5,2.5-.8,3.8-1.1,1.9-.4,3.9,0,5.8,.4,.6,.1,3.3-.5,2.3-1.6-5.2-5.3-12.8-8.6-20.3-7.4-6.5,1.1-13.1,5.3-15.5,11.7-.2,.7,1,.9,1.4,.8,.7,0,1.5-.4,1.7-1.1h.1Z"></path><path class="cls-6" d="M580,201.75c2.2-5.4,4.8-10.6,7.9-15.6l-2.9,.6c2.7,4.5,5.6,8.9,7.7,13.7,.5,1.1,3.5,.1,3.1-.8-2.2-5-5.1-9.5-7.9-14.1-.2-.4-1.1-.3-1.4-.2-.5,.1-1.2,.3-1.4,.8-3.2,5.1-5.9,10.5-8.1,16-.3,.7,1,.7,1.3,.7,.7,0,1.5-.4,1.8-1.1h-.1Z"></path><path class="cls-6" d="M591.6,193.15c4.7-5.2,10.8-10.1,17.7-12,6.1-1.6,13-.6,17.7,3.8l2-2c-2.7-1.1-5.5-2.2-8.5-1.7s-5.2,2.3-7.4,4.1c-4.5,3.7-8.6,7.9-12.6,12.1-.5,.5-.2,1.3,.4,1.6,.8,.3,1.6,0,2.2-.6,3.5-3.6,7-7.2,10.8-10.4,1.7-1.5,3.6-3.3,5.8-4.1,2.5-.9,5.3,.4,7.6,1.3,1.2,.5,3.3-.8,2-2-5.4-5-13.4-6.1-20.3-4.3-7.8,2-14.7,7.5-20,13.4-.5,.6-.2,1.3,.4,1.6,.7,.3,1.7,0,2.2-.6h0v-.2Z"></path><path class="cls-6" d="M583.7,192.95c-3.8-2.1-7.7-3.9-11.7-5.6s-7.9-3.8-11.9-5.7c-3-1.4-6.1-2.8-9.6-2.6-3,.2-6,1-8.8,2-1.8,.6-3.6,1.3-5.3,2.1-.3,.2-.8,.5-.5,.9s1.3,.1,1.6,0c5.2-1.2,9.9,.8,14.3,3.3,3.9,2.2,7.7,4.9,10.7,8.3,.6,.7,3.5-.4,2.9-1.1-3.5-3.9-7.9-6.8-12.5-9.2-2.3-1.2-4.7-2.3-7.3-2.8-2.8-.5-5.7-.3-8.5,.4l1.1,.9c.2-.1,0,0,0,0,.3,0,.5-.2,.8-.3,.9-.4,1.8-.7,2.7-1.1,2.3-.9,4.8-1.6,7.2-1.9,3.1-.3,6,1.1,8.7,2.4,3.6,1.7,7,3.6,10.6,5.2,4.2,1.9,8.5,3.7,12.5,6,.6,.3,1.4,.1,2,0,.2,0,1.4-.7,.9-1h0l.1-.2Z"></path><path class="cls-6" d="M587.8,186.05c-9-12.9-22.8-22.6-38-26.8-4.2-1.2-8.6-1.9-13-2.2-.5,0-2.8,.6-2,1.5,3.2,3.5,6.4,6.9,9.5,10.5s6.1,7.3,8.2,11.6c.5,1.1,3.5,.1,3.1-.8-2-4.3-5-8.1-8.1-11.6s-6.5-7.2-9.8-10.8l-2,1.5c15.3,.9,30,8.1,40.9,18.6,3.1,3,5.9,6.2,8.3,9.8,.6,.9,3.6-.1,2.8-1.2h0l.1-.1Z"></path><path class="cls-6" d="M587.8,186.45c5.8-7.2,12.9-13.3,20.4-18.8,3.7-2.6,7.4-5.3,11.4-7.4,4.4-2.3,9-3.2,13.9-1.9l.3-1.7c-9.8,5.1-17.8,13.2-23.5,22.6-.8,1.4,2.3,1.2,2.9,.2,5.2-8.8,12.7-16.5,21.8-21.3,.7-.4,1.5-1.4,.3-1.7-3.9-1-8-1.1-11.8,0s-7.1,3.1-10.3,5.3c-6.5,4.2-12.8,8.9-18.6,14.2-3.3,3-6.4,6.2-9.2,9.7-1.2,1.5,1.8,1.6,2.5,.7h0l-.1,.1Z"></path><path class="cls-6" d="M587.9,186.25c-1.5-6.8-2.5-14.8-7.3-20.3-2.8-3.2-6.6-5.9-10.2-8.1-1.8-1.1-3.8-2.1-5.8-3-1.5-.6-3.1-1.3-4.7-1.3s-2.5,.4-2.1,1.4c1.3,3.6,2.2,7.4,3.4,11,.4,1.2,3.5,.3,3.1-.8-1.3-3.6-2.2-7.4-3.4-11l-2.1,1.4c1.6,0,3.2,.9,4.6,1.5,1.8,.8,3.6,1.8,5.3,2.9,3.4,2.2,7,4.7,9.6,7.9,4.2,5.3,5.1,12.8,6.5,19.2,.3,1.2,3.3,.4,3.1-.8h0Z"></path><path class="cls-6" d="M585,173.95c2-4.2,3.7-8.5,5.9-12.5,1-1.8,1.8-3.8,3.2-5.3,.8-.8,1.8-1.4,2.7-2,1.1-.7,2.2-1.4,3.4-2.1,3.6-2.1,7.2-4.1,11.1-5.7,2.5-1,5.1-2,7.8-2.4,1.6-.2,3.5-.3,5,.5l2.5-1.1c-3.9,0-7.6,1.4-10.6,3.8-3.3,2.5-5.6,6.1-7.7,9.6-1,1.6-2,3.2-2.7,5-1,2.6-1.9,5.3-2.9,8-.2,.5,2.7,.2,3-.6,1.4-3.7,2.4-7.6,4.5-11.1,1.6-2.8,3.3-5.6,5.4-8.1,2.3-2.7,5.4-5.4,9.1-5.4,.6,0,1.3-.2,1.9-.4,.1,0,1-.5,.6-.7-1.7-.9-3.7-.9-5.5-.7-3,.2-6.1,1.1-8.9,2.1-4,1.4-7.8,3.3-11.4,5.3-2.4,1.3-4.7,2.7-7,4.2-2,1.3-3.5,2.6-4.7,4.8-2.8,5-5,10.2-7.5,15.4-.2,.5,1.1,.3,1.2,.2,.5,0,1.6-.3,1.8-.8h-.2Z"></path><path class="cls-6" d="M580,165.45c1.9-13.4,2.2-27.1,.9-40.5l-3,.9c7.7,9,7.7,21.8,12.2,32.3,.3,.7,3.3-.3,3.1-.8-4.5-10.6-4.6-23.4-12.4-32.5-.4-.5-3,.3-3,.9,1.3,13.5,.9,27.1-.9,40.5,0,.3,3,0,3.1-.8h0Z"></path><path class="cls-6" d="M590.9,149.95c2-2.8,4-5.6,6.1-8.2,1.8-2.2,4.2-4.5,7.1-5l-1.3-1.3c-2,5.1-6,10.3-4.2,16.1,.4,1.4,3.5,.6,3.1-.8-1.7-5.3,2.2-10.2,4.1-14.9,.3-.8-.5-1.4-1.3-1.3-3.8,.6-6.9,2.8-9.4,5.6-1.2,1.4-2.3,3-3.4,4.5s-2.2,3-3.3,4.5,1.8,2,2.6,.9h0l-.1-.1Z"></path><path class="cls-6" d="M569.2,157.05c1.3-6,.5-12.1-1.9-17.7l-3,1c5.6,5.1,10.2,11.2,13.5,18,.5,1,3.5,0,3.1-.8-3.4-6.9-8.1-13.1-13.8-18.4-.5-.5-3.4,0-3,1,2.4,5.5,3.2,11.4,1.9,17.3-.2,1,2.8,.6,3.1-.4h.1Z"></path><path class="cls-6" d="M570.8,214.75c-2.3,.1-3.7,1.1-5.3,2.6-1.7,1.6-3.4,3.4-4.9,5.2-3,3.6-5.7,7.5-8,11.5-4.8,8.3-8,17.5-10,26.8-1,4.6-1.7,9.3-2,14-.5,5.7-.2,11.2,1.8,16.7,3.4,9.4,7.7,19.1,16,25.2s19,8.5,29.3,9c2.8,.1,5.7,.2,8.5-.1s5.2-1.2,7.7-2.4c4.2-2,8.2-4.6,11.8-7.6,7.1-6,12.8-13.8,15.9-22.6,1.8-5.2,2.8-10.6,3.6-16,.8-5.6,1.4-11.2,1.2-16.9-.8-17.8-10.8-34.9-25.5-44.8-1.8-1.2-3.7-2.3-5.6-3.3-1.3-.7-3.5,1.3-1.8,2.2,14.9,7.8,25.9,22.9,29,39.5,1.8,9.8,.4,20.1-1.5,29.8s-5.5,17.9-11.7,25.1c-2.8,3.3-6.1,6.2-9.7,8.6-3.8,2.6-8,5.1-12.6,6-2.6,.5-5.3,.4-8,.3s-5.2-.3-7.8-.7c-5-.7-10-2-14.6-4.3-4-1.9-7.7-4.5-10.7-7.8-3.3-3.6-5.5-8-7.4-12.5-2-4.7-4.3-9.5-4.8-14.7s0-10.1,.7-15c2.5-17.7,9.3-35.4,21.9-48.3,1.2-1.2,2.4-3,4.3-3s2.3-2.5,.2-2.4h0v-.1Z"></path><path class="cls-6" d="M584.5,220.05c1.6,3.4,3.9,6.4,6,9.5,2.8,4.1,5.7,8.2,8.7,12.2s6.1,7.5,9.3,11.1c3.5,4,7,8,11,11.5s8.4,6.3,13,8.9c.7,.4,1.6,.2,2.2-.2,.5-.3,.9-1.1,.2-1.4-4.1-2.3-8.1-4.7-11.7-7.7-3.8-3.1-7-6.8-10.3-10.5s-6.8-7.5-9.9-11.5-5.7-7.8-8.5-11.7c-2.4-3.5-5.3-7.1-7.1-10.9-.6-1.2-3.6-.3-3.1,.8h0l.2-.1Z"></path><path class="cls-6" d="M599.5,217.35c5.7,12.5,15.1,23.5,25.5,32.4,2.4,2,4.8,4,7.4,5.8,.6,.4,1.4,.2,2,0,.2,0,1.4-.7,.9-1.1-4.8-3.3-9.2-7.2-13.3-11.3-4.9-4.9-9.5-10.2-13.4-16-2.3-3.4-4.3-6.9-6-10.5-.4-.9-3.4,0-3.1,.8h0v-.1Z"></path><path class="cls-6" d="M550.5,238.85c4.5,11.4,10.2,22.2,17.2,32.3s15.6,20.3,24.3,29.7c5.6,6.1,11.4,12,17.2,18,.7,.7,3.6-.4,2.9-1.2-18.3-18.7-36.9-37.8-49.7-60.8-3.3-6-6.3-12.3-8.8-18.8-.4-1-3.4-.1-3.1,.8h0Z"></path><path class="cls-6" d="M543.9,257.05c5,10.7,10.8,21,17.9,30.4,3.6,4.8,7.6,9.3,11.9,13.5,4.5,4.5,9.1,8.9,14,12.9,4.1,3.4,8.2,7.1,13,9.6,.7,.4,3.6-.8,2.5-1.3-4.3-2.2-8-5.6-11.7-8.7-4.7-3.8-9-8-13.4-12.1-8.6-8.3-15.8-17.5-22-27.8-3.4-5.6-6.4-11.4-9.1-17.3-.4-.9-3.4,.1-3.1,.8h0Z"></path><path class="cls-6" d="M540.7,274.75c5.3,9.2,11.3,18.1,17.9,26.4,5.4,6.8,11.2,13.4,18,18.9,2.5,2.1,5.3,4,8.3,5.3,.6,.2,1.5,0,2.1-.3,.3-.2,.9-.7,.3-1-6.1-2.5-11.2-7.6-15.7-12.2-6.7-6.9-12.7-14.5-18.2-22.4-3.5-5-6.8-10.2-9.8-15.5-.5-.9-3.3,.1-2.9,.8h0Z"></path><path class="cls-6" d="M545.4,260.55c7.1-5.2,14.1-10.4,20.5-16.3,4.9-4.4,9.3-9.3,13.5-14.3,2.8-3.3,5.4-6.8,8.1-10.2,.5-.6-.4-1-.9-1-.8,0-1.6,.3-2,.9-4.3,5.5-8.6,11-13.3,16.2-4.7,5.1-9.7,9.7-15.1,14-4.2,3.4-8.4,6.6-12.8,9.7-1.7,1.2,.9,1.8,1.9,1h.1Z"></path><path class="cls-6" d="M543.6,276.65c13.1-7.1,25.3-15.7,36.6-25.5,8.6-7.5,16.7-15.7,23.9-24.6,2.6-3.2,5-6.4,7.2-9.9,.4-.6-.3-1.1-.9-1.1-.7,0-1.6,.3-2,.9-4.3,7-9.8,13.3-15.5,19.3-8.9,9.4-18.6,18.1-29.1,25.7-6.9,5-14,9.6-21.5,13.6-1.8,1-.2,2.4,1.3,1.6h0Z"></path><path class="cls-6" d="M546.4,293.05c13.7-7.3,27.5-15,39.8-24.6,9.1-7.2,16.9-15.6,23.4-25.2,4-6,7.6-12.3,11-18.6,.3-.6-1.1-.5-1.3-.5-.6,0-1.5,.3-1.8,.9-5.7,10.5-11.8,20.9-19.8,29.9s-18.1,16.7-28.5,23.2c-8.1,5.1-16.4,9.7-24.8,14.2-.4,.2-.9,.6-.3,1s1.7,0,2.2-.4h0l.1,.1Z"></path><path class="cls-6" d="M552.2,306.75c15-4.6,29.1-12,41.1-22.3,10.3-8.8,18.9-19.4,25.8-31,3.5-5.9,6.6-11.9,9.4-18.1,.3-.8-2.7-.5-3.1,.5-5,11.1-11,21.8-18.5,31.4-8.5,10.9-18.8,20.4-30.8,27.5-7.7,4.6-15.8,8.1-24.3,10.8-.4,.1-1.5,.5-1.4,1.1s1.4,.3,1.7,.2h0l.1-.1Z"></path><path class="cls-6" d="M562.1,316.05c17.1-6.4,33-16,46-28.9,8.6-8.6,15.9-18.5,21.4-29.3,1.7-3.3,3.1-6.6,4.5-10,.4-.9-2.7-.5-3.1,.4-3.1,7.4-6.7,14.5-11.1,21.2-8,12-18.4,22.4-30.2,30.6-8.9,6.2-18.6,11.1-28.7,14.9-.4,.1-1.2,.6-.8,1.1s1.6,.1,2,0h0Z"></path><path class="cls-6" d="M578,324.35c11.3-3.9,21.9-9.6,30.8-17.5,7.2-6.3,13.1-13.9,18.4-21.9,2.7-4.1,5.3-8.3,8-12.5,.8-1.2-2.3-1-2.9,0-4.7,7.4-9.2,14.9-14.6,21.8-6.2,7.9-13.6,14.8-22.1,20.1-5.9,3.6-12.2,6.5-18.8,8.8-.5,.2-1.2,.7-.8,1.3s1.5,.2,2,0h0v-.1Z"></path><path class="cls-6" d="M569.1,216.35c2.1,6.2,5.4,11.8,9,17.2s6.9,10.6,10.5,15.8c7.2,10.4,14.8,20.5,23.6,29.6,5,5.1,10.3,9.9,16,14.3,.7,.5,3.4-.7,2.9-1.1-10-7.7-18.9-16.7-26.8-26.5-8-9.9-15-20.5-22-31.2-4-6.1-7.8-12.1-10.1-19-.3-.8-3.3,.1-3.1,.8h0v.1Z"></path><path class="cls-6" d="M560.7,223.15c3.6,12.6,9.2,24.7,16.3,35.8,7.5,11.5,17,21.5,26.3,31.6,5.5,5.9,10.9,11.8,16.4,17.8,.8,.9,3.7-.3,2.8-1.2-9.5-10.4-19.2-20.7-28.6-31.3-8.9-10-16.6-20.8-22.4-32.9-3.2-6.6-5.8-13.5-7.8-20.5-.3-1.2-3.4-.4-3.1,.8h0l.1-.1Z"></path></g></g></g></g></g></svg>