<svg width="28" height="28" viewBox="0 0 28 28" fill="none" xmlns="http://www.w3.org/2000/svg">
<g clip-path="url(#clip0_368_1047)">
<path d="M3.78088 7.1141C4.51199 6.6031 5.6141 6.7011 6.27055 7.24321L5.51766 6.14887C4.91177 5.28476 5.12877 4.34987 5.99366 3.74321C6.85855 3.13887 9.30932 4.76365 9.30932 4.76365C8.69799 3.89098 8.81232 2.78498 9.68499 2.17287C10.1045 1.87972 10.6233 1.7651 11.1273 1.85421C11.6314 1.94331 12.0794 2.22885 12.373 2.6481L20.4774 14.097L19.4445 24.1109L10.8244 20.9671L3.30566 9.81921C3.15904 9.61045 3.05503 9.37484 2.99956 9.12585C2.94409 8.87685 2.93826 8.61937 2.98239 8.36812C3.02653 8.11687 3.11977 7.87679 3.25679 7.66161C3.3938 7.44643 3.57189 7.26038 3.78088 7.1141Z" fill="#B78B60"/>
<path d="M2.09619 13.4835C2.09619 13.4835 1.21575 12.2001 2.49986 11.3205C3.78242 10.4408 4.66208 11.7233 4.66208 11.7233L8.74619 17.6796C8.88619 17.4447 9.04175 17.2129 9.21286 16.9842L3.54442 8.71879C3.54442 8.71879 2.66475 7.43623 3.94808 6.55657C5.23142 5.6769 6.1103 6.95946 6.1103 6.95946L11.442 14.7349C11.64 14.5726 11.8436 14.4113 12.0525 14.2511L5.87153 5.2359C5.87153 5.2359 4.99186 3.95334 6.27519 3.07368C7.55853 2.19401 8.43742 3.47657 8.43742 3.47657L14.6184 12.4902C14.8455 12.351 15.0703 12.2305 15.2959 12.1029L9.51853 3.67801C9.51853 3.67801 8.63886 2.39546 9.92142 1.51579C11.204 0.636122 12.0836 1.91868 12.0836 1.91868L18.1923 10.8273L19.121 12.1822C15.2725 14.822 14.9062 19.7881 17.105 22.9949C17.5444 23.6366 18.1861 23.1971 18.1861 23.1971C15.5471 19.3479 16.3529 15.0227 20.2021 12.3837L19.0673 6.70434C19.0673 6.70434 18.6434 5.2079 20.1391 4.78323C21.6355 4.35934 22.0602 5.85579 22.0602 5.85579L23.3707 9.74779C23.8903 11.2909 24.4433 12.8286 25.1752 14.283C27.2417 18.3897 26.0074 23.4935 22.1107 26.1667C17.8602 29.081 12.0494 27.9976 9.13431 23.7478L2.09619 13.4835Z" fill="#D4AB88"/>
<path d="M9.33339 24.9218C6.22228 24.9218 3.0785 21.778 3.0785 18.6669C3.0785 18.2368 2.7635 17.8892 2.33339 17.8892C1.90328 17.8892 1.52295 18.2368 1.52295 18.6669C1.52295 23.3336 4.66673 26.4774 9.33339 26.4774C9.7635 26.4774 10.1112 26.097 10.1112 25.6669C10.1112 25.2368 9.7635 24.9218 9.33339 24.9218Z" fill="#5DADEC"/>
<path d="M5.44444 26.4446C3.11111 26.4446 1.55556 24.889 1.55556 22.5557C1.55556 22.3494 1.47361 22.1516 1.32775 22.0057C1.18189 21.8598 0.984057 21.7779 0.777778 21.7779C0.571498 21.7779 0.373667 21.8598 0.227806 22.0057C0.0819442 22.1516 0 22.3494 0 22.5557C0 25.6668 2.33333 28.0001 5.44444 28.0001C5.65072 28.0001 5.84855 27.9182 5.99442 27.7723C6.14028 27.6264 6.22222 27.4286 6.22222 27.2223C6.22222 27.0161 6.14028 26.8182 5.99442 26.6724C5.84855 26.5265 5.65072 26.4446 5.44444 26.4446ZM18.6667 1.55566C18.4604 1.55566 18.2626 1.63761 18.1167 1.78347C17.9708 1.92933 17.8889 2.12716 17.8889 2.33344C17.8889 2.53972 17.9708 2.73755 18.1167 2.88341C18.2626 3.02928 18.4604 3.11122 18.6667 3.11122C21.7778 3.11122 24.8889 5.90266 24.8889 9.33344C24.8889 9.53972 24.9708 9.73755 25.1167 9.88341C25.2626 10.0293 25.4604 10.1112 25.6667 10.1112C25.8729 10.1112 26.0708 10.0293 26.2166 9.88341C26.3625 9.73755 26.4444 9.53972 26.4444 9.33344C26.4444 5.04478 23.3333 1.55566 18.6667 1.55566Z" fill="#5DADEC"/>
<path d="M22.5556 0.0327148C22.1263 0.0327148 21.7778 0.348493 21.7778 0.777826C21.7778 1.20716 22.1263 1.58827 22.5556 1.58827C24.8889 1.58827 26.4118 3.31883 26.4118 5.44449C26.4118 5.87383 26.7922 6.22227 27.2223 6.22227C27.6524 6.22227 27.9674 5.87383 27.9674 5.44449C27.9674 2.46016 25.6667 0.0327148 22.5556 0.0327148Z" fill="#5DADEC"/>
</g>
<defs>
<clipPath id="clip0_368_1047">
<rect width="28" height="28" fill="white"/>
</clipPath>
</defs>
</svg>
